<?xml version="1.0" encoding="UTF-8"?>
<!DOCTYPE svg PUBLIC "-//W3C//DTD SVG 1.1//EN" "http://www.w3.org/Graphics/SVG/1.1/DTD/svg11.dtd">
<!-- Creator: CorelDRAW X7 -->
<svg xmlns="http://www.w3.org/2000/svg" xml:space="preserve" width="1000px" height="634px" version="1.1" style="shape-rendering:geometricPrecision; text-rendering:geometricPrecision; image-rendering:optimizeQuality; fill-rule:evenodd; clip-rule:evenodd"
viewBox="0 0 1000 634"
 xmlns:xlink="http://www.w3.org/1999/xlink">
 <defs>
  <style type="text/css">
   <![CDATA[
    .fil0 {fill:#FEFEFE;fill-rule:nonzero}
   ]]>
  </style>
 </defs>
 <g id="Layer_x0020_1">
  <metadata id="CorelCorpID_0Corel-Layer"/>
  <g id="_731944264592">
   <path class="fil0" d="M853 168c-24,0 -44,23 -44,52 0,28 19,50 44,50 25,0 45,-22 45,-50 0,-28 -21,-52 -45,-52z"/>
   <path class="fil0" d="M279 408c-25,0 -44,22 -44,50 0,27 19,49 44,49 24,0 44,-22 44,-49 0,-28 -20,-50 -44,-50z"/>
   <path class="fil0" d="M950 0l-900 0c-28,0 -50,22 -50,50l0 534c0,28 22,50 50,50l900 0c28,0 50,-22 50,-50l0 -534c0,-28 -22,-50 -50,-50zm-593 99l0 0c65,0 116,53 116,121l0 115 -71 0 0 -6c-14,7 -29,11 -46,11 -64,0 -115,-53 -115,-120 0,-68 51,-121 116,-121zm-225 69l0 0c-17,0 -30,13 -30,30l0 137 -71 0 0 -279c0,-20 17,-37 37,-37l34 0 0 87c11,-5 23,-7 35,-7 56,0 94,41 94,101l0 139c-34,14 -60,42 -72,77l0 -217c0,-31 -20,-31 -27,-31zm147 410l0 0c-65,0 -116,-53 -116,-120 0,-68 51,-121 116,-121 65,0 116,53 116,121 0,67 -51,120 -116,120zm323 -100l0 0c0,60 -45,103 -106,100 -53,-3 -94,-49 -94,-103l0 -133 71 0 0 136c0,18 11,29 29,29 17,0 28,-11 28,-29l0 -136 72 0 0 136zm29 -309l0 0c-18,0 -29,11 -29,29l0 137 -71 0 0 -133c0,-54 40,-100 94,-103 60,-3 105,40 105,100l0 136 -71 0 0 -137c0,-18 -11,-29 -28,-29zm144 427l0 0c0,9 -6,17 -15,18l-2 0c-5,0 -9,1 -14,1 -50,0 -84,-37 -84,-91l0 -182 71 0 0 41 17 1c6,7 19,21 27,27l0 42 -44 0 0 71c0,18 6,21 19,21 2,0 3,0 4,0l21 -1 0 52zm194 -290l0 0c0,72 -49,123 -118,123 -30,0 -57,-9 -76,-26 -8,-6 -14,-12 -19,-20 -7,-10 -12,-20 -15,-32l-2 -9 74 0c10,17 29,16 38,16 25,0 37,-12 42,-26 -12,5 -26,8 -40,8 -15,0 -29,-3 -42,-8 -6,-3 -16,-8 -27,-15 0,0 0,0 0,0 -29,-22 -47,-57 -47,-97 0,-68 51,-121 116,-121 65,0 116,53 116,121l0 86z"/>
   <path class="fil0" d="M357 270c25,0 45,-22 45,-50 0,-28 -21,-52 -45,-52 -24,0 -44,23 -44,52 0,28 19,50 44,50z"/>
  </g>
 </g>
</svg>
